<?xml version="1.0" standalone="no"?>
<!DOCTYPE svg PUBLIC "-//W3C//DTD SVG 20010904//EN"
 "http://www.w3.org/TR/2001/REC-SVG-20010904/DTD/svg10.dtd">
<svg version="1.0" xmlns="http://www.w3.org/2000/svg"
 width="960.000000pt" height="960.000000pt" viewBox="0 0 960.000000 960.000000"
 preserveAspectRatio="xMidYMid meet">
<metadata>
Created by potrace 1.11, written by Peter Selinger 2001-2013
</metadata>
<g transform="translate(0.000000,960.000000) scale(0.100000,-0.100000)"
fill="#000000" stroke="none">
<path d="M875 9593 c-50 -6 -169 -33 -190 -42 -26 -12 -60 -23 -60 -20 0 5
-161 -84 -204 -113 -70 -48 -205 -188 -254 -265 -59 -91 -82 -137 -113 -229
-57 -169 -53 98 -51 -4154 2 -3614 4 -3930 19 -3992 44 -178 134 -341 258
-468 156 -161 325 -253 540 -295 115 -22 7839 -22 7956 0 150 29 316 99 415
176 188 146 304 314 376 546 l28 88 0 3965 0 3965 -22 82 c-47 177 -123 317
-241 444 -152 163 -358 274 -577 308 -57 9 -7811 13 -7880 4z"/>
</g>
</svg>
